# xmcd
#
# Track frame offsets: 
#        150
#        17455
#        29869
#        46332
#        58453
#        72418
#        92296
#        106141
#        123192
#        141954
#        162307
#        173755
#        190708
#        207376
#        221235
#        234387
#
# Disc length: 3401 seconds
#
# Revision: 0
# Processed by: cddbd v1.5.2PL0 Copyright (c) Steve Scherf et al.
# Submitted via: ExactAudioCopy v1.2
#
DISCID=e50d4710
DTITLE=Jeremy Spencer - Homebrewed Blues
DYEAR=2016
DGENRE=Blues
TTITLE0=Mona Speaks Her Mind
TTITLE1=Perilous Times
TTITLE2=A Glimmer Of Hope
TTITLE3=Lopin' Along The Trail
TTITLE4=Wake Up Blues
TTITLE5=Taken With Her Eyes 
TTITLE6=Marlene
TTITLE7=Tears And Mirth
TTITLE8=Yearning Heart
TTITLE9=Theresa's Tears
TTITLE10=Who Said They're Dead
TTITLE11=Down At The Cornerstone
TTITLE12=The Haul Of Fame
TTITLE13=Stompin' The Blues
TTITLE14=Night Train To Wonderland
TTITLE15=Longing For The Days
EXTD=
EXTT0=
EXTT1=
EXTT2=
EXTT3=
EXTT4=
EXTT5=
EXTT6=
EXTT7=
EXTT8=
EXTT9=
EXTT10=
EXTT11=
EXTT12=
EXTT13=
EXTT14=
EXTT15=
PLAYORDER=
